<?xml version="1.0" encoding="iso-8859-1"?>
<!-- Uploaded to: SVG Repo, www.svgrepo.com, Generator: SVG Repo Mixer Tools -->
<svg height="40px" width="40px" version="1.1" id="Layer_1" xmlns="http://www.w3.org/2000/svg" xmlns:xlink="http://www.w3.org/1999/xlink" 
	 viewBox="0 0 512 512" xml:space="preserve">
<path style="fill:#3DD584;" d="M512,256.006C512,397.402,397.394,512.004,256.004,512C114.606,512.004,0,397.402,0,256.006
	C-0.007,114.61,114.606,0,256.004,0C397.394,0,512,114.614,512,256.006z"/>
<path style="fill:#28B76B;" d="M511.138,276.138c-0.208-0.203-0.401-0.422-0.62-0.619c-0.471-0.526-166.149-166.205-166.674-166.676
	c-3.518-3.923-8.571-6.443-14.244-6.443h-12.8c-10.588,0-19.2,8.613-19.2,19.199v75.341c-0.111-0.106-0.24-0.19-0.353-0.291
	c-0.473-0.529-85.79-85.844-86.315-86.315c-0.47-0.526-0.963-1.019-1.489-1.489c-3.518-3.925-8.571-6.445-14.243-6.445h-12.8
	c-10.588,0-19.2,8.613-19.2,19.199V211.2h-25.6c-3.535,0-6.4,2.862-6.4,6.399v96.076c0,18.001,7.507,34.258,19.52,45.886
	c0.491,0.508,146.828,146.845,147.338,147.339c0.447,0.461,0.902,0.914,1.363,1.362C413.65,488.739,501.991,393.594,511.138,276.138
	z"/>
<g>
	<path style="fill:#F4F6F9;" d="M374.4,211.2h-25.6v-89.6c0-10.588-8.612-19.2-19.2-19.2h-12.8c-10.588,0-19.2,8.612-19.2,19.2v89.6
		h-83.2v-89.6c0-10.588-8.612-19.2-19.2-19.2h-12.8c-10.588,0-19.2,8.612-19.2,19.2v89.6h-25.6c-3.534,0-6.4,2.863-6.4,6.4v96.075
		c0,35.25,28.678,63.925,63.925,63.925H208v25.6c0,3.537,2.866,6.4,6.4,6.4h83.2c3.534,0,6.4-2.863,6.4-6.4v-25.6h12.938
		c35.213,0,63.862-28.65,63.862-63.862V217.6C380.8,214.063,377.934,211.2,374.4,211.2z M310.4,121.6c0-3.532,2.871-6.4,6.4-6.4
		h12.8c3.529,0,6.4,2.868,6.4,6.4v89.6h-25.6V121.6z M176,121.6c0-3.532,2.871-6.4,6.4-6.4h12.8c3.529,0,6.4,2.868,6.4,6.4v89.6H176
		V121.6z M291.2,396.8h-70.4v-19.2h70.4V396.8z M368,313.738c0,28.156-22.907,51.062-51.062,51.062H195.125
		c-28.191,0-51.125-22.938-51.125-51.125V224h224V313.738z"/>
</g>
</svg>
